<svg width="81" height="125" viewBox="0 0 81 125" fill="none" xmlns="http://www.w3.org/2000/svg">
<rect x="52.6317" y="95.8647" width="12.5314" height="28.8222" rx="6.26569" fill="black"/>
<rect x="37.9073" y="91.2544" width="12.5314" height="24.95" rx="6.26569" transform="rotate(-45 37.9073 91.2544)" fill="black"/>
<rect x="62.4326" y="108.583" width="12.5314" height="24.95" rx="6.26569" transform="rotate(-135 62.4326 108.583)" fill="black"/>
<path d="M0 92.1051C0 87.7795 3.50656 84.2729 7.83211 84.2729V84.2729C12.1577 84.2729 15.6642 87.7795 15.6642 92.1051V125H7C3.13401 125 0 121.866 0 118V92.1051Z" fill="black"/>
<path d="M12.6642 110.275H31.172C35.238 110.275 38.5342 113.572 38.5342 117.638V117.638C38.5342 121.704 35.238 125 31.172 125H12.6642V110.275Z" fill="black"/>
<rect x="39.787" y="41.6665" width="12.5314" height="40.727" rx="6.26569" fill="black"/>
<rect x="78.3212" y="52.3184" width="38.534" height="10.6517" rx="5.32584" transform="rotate(-180 78.3212 52.3184)" fill="black"/>
<rect x="78.3212" y="82.3936" width="38.534" height="10.6517" rx="5.32584" transform="rotate(-180 78.3212 82.3936)" fill="black"/>
<rect x="78.3212" y="67.3564" width="38.534" height="10.6517" rx="5.32584" transform="rotate(-180 78.3212 67.3564)" fill="black"/>
<rect y="41.98" width="12.5314" height="40.727" rx="6.26569" fill="black"/>
<rect x="26.0026" y="41.98" width="12.5314" height="40.727" rx="6.26569" fill="black"/>
<rect y="46.8774" width="10.965" height="47.6332" rx="5.48248" transform="rotate(-38.1762 0 46.8774)" fill="black"/>
<rect x="39.787" width="38.534" height="40.727" rx="19.267" fill="black"/>
<path d="M0 7.83212C0 3.50656 3.50656 0 7.83211 0V0C12.1577 0 15.6642 3.50655 15.6642 7.83211V40.727H7C3.13401 40.727 0 37.593 0 33.727V7.83212Z" fill="black"/>
<path d="M12.6642 26.0024H31.172C35.238 26.0024 38.5342 29.2986 38.5342 33.3646V33.3646C38.5342 37.4306 35.238 40.7268 31.172 40.7268H12.6642V26.0024Z" fill="black"/>
</svg>
